<?xml version="1.0" encoding="utf-8"?>
<!-- Generator: Adobe Illustrator 26.0.3, SVG Export Plug-In . SVG Version: 6.00 Build 0)  -->
<svg version="1.1" id="Layer_1" xmlns="http://www.w3.org/2000/svg" xmlns:xlink="http://www.w3.org/1999/xlink" x="0px" y="0px"
	 viewBox="0 0 484.7 351" style="enable-background:new 0 0 484.7 351;" xml:space="preserve">
<style type="text/css">
	.st0{fill:currentColor;}
</style>
<path class="st0" d="M251.7,96l26-21c0,0-101-20-208,71v14C69.7,160,179.7,78,251.7,96z"/>
<path class="st0" d="M130.7,214c0,0,23-8,67,3c0,0-58,3-65,14c0,0,64-14,67,0c0,0-40-4-44,16c0,0,43-16,50-4c0,0,7-9,22-13
	c0,0-9-13-8-20c0,0,8,17,19,21h7c0,0-8-16-8-30C237.7,201,153.7,199,130.7,214z"/>
<path class="st0" d="M260.7,117l-22-7c0,0-20-24-123,33c0,0,62,54,83,54s25,0,25,0s-7-55,0-75C223.7,122,243.7,116,260.7,117z"/>
<path class="st0" d="M222.7,57c0,0-28-24-38-24c0,0,25.4,22.8,29.5,34.7c18.3-2.9,33.7-3.3,44.9-3C254.8,56.5,230,10,212.7,0
	c0,0,21,31,18,44c0,0-33-25-47-24C183.7,20,222.7,46,222.7,57z"/>
<path class="st0" d="M210.2,68.4c-4.1-8.1-28.4-26.4-28.4-26.4c10.8,10.8,12.6,25.1,12.9,29.6C200.1,70.3,205.3,69.2,210.2,68.4z"/>
<path class="st0" d="M16.7,273c-8,0-10-15-7-34c8-50,38-61,38-61l11-1l7-12l-5-2v-12l3-6h-9l-10,9v6c-4,0-23,16-23,16
	c-18,19-24,57-21,74c1.4,7.9,6,30,17,30s21-19,21-19l2-12C34.7,263,24.7,273,16.7,273z"/>
<path class="st0" d="M115.7,218.9l-31.2-1.6l0.7-13.1c-34.5-0.1-39.7,35.8-39.7,35.8s-4.2,22-2.8,22.9
	c28.7,17.9,38.7,15.2,38.7,15.2l0.8-14.8l31.2,1.6c0,0,4.9,0.3,5.2-4.7c0.3-4.9-4.7-5.2-4.7-5.2l-31.2-1.6l1.4-26.2l31.2,1.6
	c0,0,4.9,0.3,5.2-4.7C120.6,219.1,115.7,218.9,115.7,218.9z"/>
<path class="st0" d="M26.7,165c0-0.1,0-0.1,0-0.2l-0.1,0.1C26.7,165,26.7,165,26.7,165z"/>
<path class="st0" d="M12.7,163c0,0,9,2,11,4l2.9-2.1C25.7,164.5,19.2,161.1,12.7,163z"/>
<path class="st0" d="M30.7,162l7-5c0,0-15-13-28-12C9.7,145,31.7,157,30.7,162z"/>
<path class="st0" d="M11.7,156c0,0,15.4,5.8,15,8.8l4-2.8C30.7,162,17.7,155,11.7,156z"/>
<path class="st0" d="M484.7,169c0,0-21-63-200-93l-29,31l39,9l-6,3c0,0-30-3-51,21c0,0,30-11,43-7l-15,7l-1,76
	c0,0,31.5-32.5,57.5-32.5c0,0-45,20-51,38c0,0,55-41,86-37c0,0-70,27-86,62c0,0-22-39-16-100l-19,11c0,0,5,110,70,157
	c0,0-26-43-26-51C280.2,255.5,355.2,156.5,484.7,169z M433.7,143c0,0-23-4-29,4s-2-24-26-25C378.7,122,424.7,122,433.7,143z"/>
<path class="st0" d="M387.2,339.5c-25-2-55-17-69-61l2.5-47.5c0,0-29,24-32,32c0,0,24,87,88,88c0,0,37,2,58-29
	C434.7,322,412.2,341.5,387.2,339.5z"/>
<path class="st0" d="M327.7,278c3,32,36,51,56,54s35-7,35-7l5-26c-4,11-18,18-18,18c5-3,6-32,6-32c-4,14-27,33-27,33s0,0,1-4
	s4-23,4-23c-9,17-26,18-26,18c0-4,5-18,5-18c-3,3-24,11-24,8s5-15,5-15C330.7,290,327.7,278,327.7,278z"/>
<path class="st0" d="M334.7,217l10.5,7.5c3-1,10-14,10-14c3,5,7,11,7,11c7-2,15-24,15-24c3,2,2,26,2,26c8-3,22-35,22-35
	c2,7-3,40-3,40c9-4,26-44,26-44c4,8-5,42-5,42c9-5,31-46,31-46c2,4-0.5,21.5-0.5,21.5c10-6,20-28,20-28
	C399.7,163,334.7,217,334.7,217z"/>
</svg>
